<svg xmlns="http://www.w3.org/2000/svg" width="160.206" height="61.193" viewBox="0 0 160.206 61.193"><path d="M46.99,37.324V22.718H40.038c-12.342,0-21.049,3.467-21.049,13.551,0,5.357,3.7,9.2,12.019,9.2a19.025,19.025,0,0,0,6.016-.748c-.407,9.448-8.415,12.621-13.293,12.621-5.458,0-13.382-4.876-13.382-17.419V28.643l-9.94,1.7v9.581c0,9.9,9.419,20.3,23.322,20.3,24.591,0,23.257-19.1,23.257-22.9m-9.94-2.347c0,4.4-1.948,8.339-4.547,8.457-2.4-.118-3.638-4.053-3.638-7.339,0-7.459,3.963-10.688,8.185-11.276Zm4.7-15.366a4.727,4.727,0,1,0-4.87-4.725,4.8,4.8,0,0,0,4.87,4.725m-12.2,0a4.8,4.8,0,0,0,4.87-4.725,4.872,4.872,0,1,0-4.87,4.725M97.655,9.8a4.8,4.8,0,0,0,4.87-4.725,4.872,4.872,0,0,0-9.739,0A4.8,4.8,0,0,0,97.655,9.8m1.634,5.088a4.872,4.872,0,1,0,4.87-4.725,4.8,4.8,0,0,0-4.87,4.725m-7.869,4.725a4.727,4.727,0,1,0-4.87-4.725,4.8,4.8,0,0,0,4.87,4.725M150.08,2.143v47.3h2.429a7.334,7.334,0,0,0,7.444-7.221V.442Zm0,0" transform="translate(0.253 0.215)" fill="#211e1e"/><path d="M119.788,49.406c6.82,0,11.5-2.772,11.5-7.878V.407l-9.94,1.7V34.766c0,3.908,0,6.3-2.924,6.3h-11.3V25.187l-9.875,1.764V41.07h-7.86V27.518l-9.875,1.7V41.07h-7.8V29.787l-9.875,1.7c.065,1.574.065,9.579.065,9.579H47.3c.236-3.273.31-4.333.31-7.862v-8.02l-9.873,1.764v8.321c0,17.9-4.614,23.4-13.643,25.417h.454c2.4.189,4.353.254,5.262.254,9.559,0,14.478-5.043,16.3-11.536l18.132.008a7.337,7.337,0,0,0,7.444-7.223l.062,7.214,10.127.008a7.335,7.335,0,0,0,7.441-7.223L89.3,49.4l10.376.008a7.336,7.336,0,0,0,7.444-7.223l0-.022a7.332,7.332,0,0,0,7.441,7.221Zm0,0" transform="translate(14.84 0.25)" fill="#211e1e"/><path d="M46.579,36.976V22.369H39.628c-12.345,0-21.049,3.465-21.049,13.551,0,5.357,3.7,9.2,12.017,9.2a19,19,0,0,0,6.016-.75C36.208,53.823,28.2,57,23.322,57,17.864,57,9.94,52.117,9.94,39.574V28.292L0,30v9.579c0,9.9,9.419,20.3,23.322,20.3,24.591,0,23.257-19.1,23.257-22.9m-9.94-2.347c0,4.4-1.951,8.339-4.549,8.457-2.4-.118-3.636-4.053-3.636-7.341,0-7.457,3.961-10.688,8.185-11.274Zm4.7-15.368a4.8,4.8,0,0,0,4.87-4.725,4.873,4.873,0,0,0-9.742,0,4.8,4.8,0,0,0,4.872,4.725m-12.2,0a4.727,4.727,0,1,0,0-9.45,4.8,4.8,0,0,0-4.872,4.725,4.8,4.8,0,0,0,4.872,4.725M97.245,9.448a4.8,4.8,0,0,0,4.87-4.723,4.872,4.872,0,0,0-9.739,0,4.8,4.8,0,0,0,4.87,4.723m1.634,5.088a4.872,4.872,0,0,0,9.739,0,4.872,4.872,0,0,0-9.739,0M91.01,19.261a4.727,4.727,0,1,0,0-9.45,4.8,4.8,0,0,0-4.87,4.725,4.8,4.8,0,0,0,4.87,4.725M149.667,1.792v47.3H152.1a7.335,7.335,0,0,0,7.444-7.221V.091Zm0,0" fill="#0794dc"/><path d="M119.376,49.059c6.822,0,11.5-2.774,11.5-7.88V.057l-9.938,1.7V34.418c0,3.908,0,6.3-2.924,6.3h-11.3V24.837L96.836,26.6V40.722h-7.86V27.171l-9.875,1.7v11.85H71.3V29.44l-9.875,1.7c.065,1.576.065,9.581.065,9.581h-14.6c.234-3.273.31-4.333.31-7.865v-8.02L37.328,26.6v8.321c0,17.9-4.611,23.4-13.643,25.417h.456c2.4.189,4.351.252,5.262.252,9.559,0,14.478-5.041,16.3-11.534l18.132.006a7.333,7.333,0,0,0,7.442-7.221l.065,7.214,10.125.006a7.335,7.335,0,0,0,7.444-7.221l-.013,7.214,10.376.006a7.333,7.333,0,0,0,7.441-7.221l0-.022a7.335,7.335,0,0,0,7.444,7.221Zm0,0" transform="translate(14.586 0.035)" fill="#0794dc"/><path d="M46.99,37.324V22.718H40.038c-12.342,0-21.049,3.467-21.049,13.551,0,5.357,3.7,9.2,12.019,9.2a19.025,19.025,0,0,0,6.016-.748c-.407,9.448-8.415,12.621-13.293,12.621-5.458,0-13.382-4.876-13.382-17.419V28.643l-9.94,1.7v9.581c0,9.9,9.419,20.3,23.322,20.3,24.591,0,23.257-19.1,23.257-22.9m-9.94-2.347c0,4.4-1.948,8.339-4.547,8.457-2.4-.118-3.638-4.053-3.638-7.339,0-7.459,3.963-10.688,8.185-11.276Zm4.7-15.366a4.727,4.727,0,1,0-4.87-4.725,4.8,4.8,0,0,0,4.87,4.725m-12.2,0a4.8,4.8,0,0,0,4.87-4.725,4.872,4.872,0,1,0-4.87,4.725M97.655,9.8a4.8,4.8,0,0,0,4.87-4.725,4.872,4.872,0,0,0-9.739,0A4.8,4.8,0,0,0,97.655,9.8m1.634,5.088a4.872,4.872,0,1,0,4.87-4.725,4.8,4.8,0,0,0-4.87,4.725m-7.869,4.725a4.727,4.727,0,1,0-4.87-4.725,4.8,4.8,0,0,0,4.87,4.725M150.08,2.143v47.3h2.429a7.334,7.334,0,0,0,7.444-7.221V.442Zm0,0" transform="translate(0.253 0.215)" fill="#211e1e"/><path d="M119.788,49.406c6.82,0,11.5-2.772,11.5-7.878V.407l-9.94,1.7V34.766c0,3.908,0,6.3-2.924,6.3h-11.3V25.187l-9.875,1.764V41.07h-7.86V27.518l-9.875,1.7V41.07h-7.8V29.787l-9.875,1.7c.065,1.574.065,9.579.065,9.579H47.3c.236-3.273.31-4.333.31-7.862v-8.02l-9.873,1.764v8.321c0,17.9-4.614,23.4-13.643,25.417h.454c2.4.189,4.353.254,5.262.254,9.559,0,14.478-5.043,16.3-11.536l18.132.008a7.337,7.337,0,0,0,7.444-7.223l.062,7.214,10.127.008a7.335,7.335,0,0,0,7.441-7.223L89.3,49.4l10.376.008a7.336,7.336,0,0,0,7.444-7.223l0-.022a7.332,7.332,0,0,0,7.441,7.221Zm0,0" transform="translate(14.84 0.25)" fill="#211e1e"/><path d="M46.579,36.976V22.369H39.628c-12.345,0-21.049,3.465-21.049,13.551,0,5.357,3.7,9.2,12.017,9.2a19,19,0,0,0,6.016-.75C36.208,53.823,28.2,57,23.322,57,17.864,57,9.94,52.117,9.94,39.574V28.292L0,30v9.579c0,9.9,9.419,20.3,23.322,20.3,24.591,0,23.257-19.1,23.257-22.9m-9.94-2.347c0,4.4-1.951,8.339-4.549,8.457-2.4-.118-3.636-4.053-3.636-7.341,0-7.457,3.961-10.688,8.185-11.274Zm4.7-15.368a4.8,4.8,0,0,0,4.87-4.725,4.873,4.873,0,0,0-9.742,0,4.8,4.8,0,0,0,4.872,4.725m-12.2,0a4.727,4.727,0,1,0,0-9.45,4.8,4.8,0,0,0-4.872,4.725,4.8,4.8,0,0,0,4.872,4.725M97.245,9.448a4.8,4.8,0,0,0,4.87-4.723,4.872,4.872,0,0,0-9.739,0,4.8,4.8,0,0,0,4.87,4.723m1.634,5.088a4.872,4.872,0,0,0,9.739,0,4.872,4.872,0,0,0-9.739,0M91.01,19.261a4.727,4.727,0,1,0,0-9.45,4.8,4.8,0,0,0-4.87,4.725,4.8,4.8,0,0,0,4.87,4.725M149.667,1.792v47.3H152.1a7.335,7.335,0,0,0,7.444-7.221V.091Zm0,0" fill="#117aca"/><path d="M119.376,49.059c6.822,0,11.5-2.774,11.5-7.88V.057l-9.938,1.7V34.418c0,3.908,0,6.3-2.924,6.3h-11.3V24.837L96.836,26.6V40.722h-7.86V27.171l-9.875,1.7v11.85H71.3V29.44l-9.875,1.7c.065,1.576.065,9.581.065,9.581h-14.6c.234-3.273.31-4.333.31-7.865v-8.02L37.328,26.6v8.321c0,17.9-4.611,23.4-13.643,25.417h.456c2.4.189,4.351.252,5.262.252,9.559,0,14.478-5.041,16.3-11.534l18.132.006a7.333,7.333,0,0,0,7.442-7.221l.065,7.214,10.125.006a7.335,7.335,0,0,0,7.444-7.221l-.013,7.214,10.376.006a7.333,7.333,0,0,0,7.441-7.221l0-.022a7.335,7.335,0,0,0,7.444,7.221Zm0,0" transform="translate(14.586 0.035)" fill="#117aca"/></svg>