<svg xmlns="http://www.w3.org/2000/svg" width="169" height="47.137" viewBox="0 0 169 47.137"><g transform="translate(1211.56 -0.003)"><path d="M-734.871,666.452c-.363.024-.714.046-1.075.046-.409,0-.8-.035-1.212-.046l1.186-2.84,1.1,2.84m1.32,3.216c.21-.011.535-.068.861-.068s.736.057.913.068c-.526-1.118-1.3-2.86-1.739-3.867-.419-.968-1.123-2.584-1.68-4.162a1.411,1.411,0,0,1-.374.057,1.552,1.552,0,0,1-.391-.057,52,52,0,0,1-2.134,5.053l-1.352,2.975a3.484,3.484,0,0,1,.524-.068,4.079,4.079,0,0,1,.559.068,25.4,25.4,0,0,1,.933-2.5c.467-.024.933-.046,1.4-.046.5,0,.992.022,1.5.046l.489,1.228Z" transform="translate(-445.679 -624.591)" fill="#53616f" fill-rule="evenodd"/><path d="M-586.369,666.371c0,1.97,0,3.875-.129,5.247.258-.011.588-.068.843-.068s.546.057.815.068c-.092-.933-.116-2.18-.116-3.9a38.639,38.639,0,0,1,.129-4.015,7.015,7.015,0,0,1-.828.07c-.175,0-.607-.046-.83-.07a23.713,23.713,0,0,1,.116,2.665" transform="translate(-590.065 -626.543)" fill="#53616f"/><path d="M-518.431,667.7a2.195,2.195,0,0,0,2.032-2.136,1.8,1.8,0,0,0-.535-1.293,2.427,2.427,0,0,0-1.833-.564c-.271,0-1.625.057-1.929.057a11.518,11.518,0,0,1-1.167-.057c.083,1.488.083,1.647.083,3.161,0,2.224-.015,2.48-.1,4.752a6.407,6.407,0,0,1,.8-.068,7.528,7.528,0,0,1,.78.068c0-.3-.046-1.787-.046-2.123v-1.636h.284c.629.874,1.354,1.89,1.946,2.8.177.262.432.69.607.957a5.619,5.619,0,0,1,.946-.068,9.871,9.871,0,0,1,1.04.068c-.734-.909-1.049-1.313-1.97-2.6-.177-.238-.433-.62-.607-.865l-.33-.459m-1.916-3.369c.175-.013.609-.059.832-.059a1.781,1.781,0,0,1,1.084.291,1.337,1.337,0,0,1,.492,1.2,1.5,1.5,0,0,1-1.6,1.593c-.308,0-.588-.026-.808-.039v-2.986Z" transform="translate(-651.06 -626.543)" fill="#53616f" fill-rule="evenodd"/><path d="M-408.924,668.882c-.546-1.6-1.311-3.851-1.671-5.212a5.123,5.123,0,0,1-.817.07c-.28,0-.679-.046-.911-.07.476,1.245.887,2.353,1.2,3.229.537,1.5.885,2.541,1.309,3.808l.293.876a2.784,2.784,0,0,1,.478-.068,1.9,1.9,0,0,1,.444.068c.186-.6.408-1.337.572-1.809.454-1.315.513-1.5,1.11-3.139l.347-.957c.131.369.354.957.481,1.326s.725,2.121.863,2.514c.19.518.234.671.666,2.062a4.27,4.27,0,0,1,.5-.068,2.591,2.591,0,0,1,.467.068c.446-1.372.494-1.51,1.143-3.358.642-1.8,1.038-2.825,1.741-4.555a2.075,2.075,0,0,1-.527.07,2.169,2.169,0,0,1-.537-.07c-.419,1.5-.631,2.226-.966,3.218-.553,1.614-.62,1.8-.957,2.68-.374-.994-.736-2-1.073-3.013-.188-.553-.9-2.862-.911-2.884a2.036,2.036,0,0,1-.513.07,2.864,2.864,0,0,1-.513-.07c-.352,1.407-1.59,4.8-1.7,5.11l-.293.752-.227-.649" transform="translate(-754.488 -626.506)" fill="#53616f"/><path d="M-218.4,666.452c-.36.024-.71.046-1.073.046-.406,0-.8-.035-1.212-.046l1.191-2.84,1.094,2.84m1.322,3.216c.212-.011.535-.068.865-.068s.734.057.907.068c-.522-1.118-1.293-2.86-1.735-3.867-.422-.968-1.127-2.584-1.684-4.162a1.357,1.357,0,0,1-.371.057,1.5,1.5,0,0,1-.387-.057,51.645,51.645,0,0,1-2.137,5.053l-1.352,2.975a3.5,3.5,0,0,1,.52-.068,4.141,4.141,0,0,1,.566.068,24.918,24.918,0,0,1,.935-2.5c.463-.024.933-.046,1.4-.046.5,0,.992.022,1.494.046l.492,1.228Z" transform="translate(-933.239 -624.591)" fill="#53616f" fill-rule="evenodd"/><path d="M-103.04,668.527a.871.871,0,0,1,.151-.369c.492-.83.946-1.7,1.47-2.525.175-.28,1.027-1.617,1.2-1.927a1.348,1.348,0,0,1-.492.07,3.868,3.868,0,0,1-.679-.07,32.752,32.752,0,0,1-2.016,3.9c-.994-1.717-1.437-2.628-2.045-3.9a5.871,5.871,0,0,1-.957.07,9.093,9.093,0,0,1-.957-.07c.6,1,1.6,2.6,2.193,3.609l.686,1.18c0,.712-.035,2.226-.068,3.124.221-.022.546-.068.78-.068.269,0,.54.046.808.068-.046-1.073-.083-1.693-.083-2.665v-.426" transform="translate(-1042.375 -626.543)" fill="#53616f"/><path d="M27.718,668.344a4.585,4.585,0,0,1-.273,1.3,4.757,4.757,0,0,0,2.185.59c2.136,0,2.96-1.348,2.96-2.523a2.284,2.284,0,0,0-.568-1.525,3.709,3.709,0,0,0-1.586-.843c-1.029-.391-1.625-.623-1.625-1.464a1.229,1.229,0,0,1,1.378-1.247,1.461,1.461,0,0,1,1.529,1h.159a5.734,5.734,0,0,1,.363-1.1,4.3,4.3,0,0,0-1.938-.472c-2.112,0-2.722,1.293-2.722,2.309a2,2,0,0,0,1.472,2.045c.328.138.878.345,1.206.485a1.4,1.4,0,0,1,.957,1.326,1.422,1.422,0,0,1-1.529,1.442c-.688,0-1.276-.175-1.809-1.326h-.159" transform="translate(-1169.634 -624.996)" fill="#53616f"/><path d="M-1206.765,176.924c0-8.721,4.728-11.076,8.3-11.076,5.746,0,8.231,4.708,8.231,9.728,0,2.868-.35,5.571-1.789,7.753a7.654,7.654,0,0,1-6.407,3.493c-6.479,0-8.336-6.091-8.336-9.9m17.442,17.824a26.162,26.162,0,0,1,3.886-2.145l-7.915-4.848c4.867-1.693,7.915-5.986,7.915-11.836,0-8.306-6.412-11.834-12.959-11.834-7.069,0-13.164,3.873-13.164,12.666a11.7,11.7,0,0,0,3.358,8.339c3.05,3.05,6.656,3.5,9.7,3.5.385,0,.771,0,1.154-.035Z" transform="translate(0 -154.895)" fill="#63003c" fill-rule="evenodd"/><path d="M-684.675,177.192c-1.086.072-2.136.142-3.22.142-1.228,0-2.418-.1-3.64-.142l3.57-8.511,3.29,8.511m3.961,9.66c.629-.037,1.608-.212,2.591-.212s2.206.175,2.733.212c-1.579-3.36-3.889-8.585-5.221-11.6-1.258-2.908-3.36-7.753-5.042-12.5a4.081,4.081,0,0,1-1.123.177,4.094,4.094,0,0,1-1.153-.177c-.841,2.842-2.871,7.34-6.41,15.159l-4.061,8.933a10.141,10.141,0,0,1,1.577-.212,11.359,11.359,0,0,1,1.682.212,75.87,75.87,0,0,1,2.8-7.513c1.4-.068,2.8-.138,4.2-.138,1.5,0,2.977.068,4.483.138l1.468,3.67Z" transform="translate(-484.428 -153.643)" fill="#63003c" fill-rule="evenodd"/><path d="M-301.671,175.233c0-1.317.037-2.628.07-3.878,2.414,0,4.9.039,6.969.245a6.412,6.412,0,0,1-.177-1.245,8.71,8.71,0,0,1,.177-1.315c-3.362.17-6.445.208-9.352.208-2.7,0-6.584-.037-9.35-.208a5.237,5.237,0,0,1,.175,1.28,5.28,5.28,0,0,1-.175,1.28c1.787-.175,5.151-.245,5.466-.245h1.75c.037,1.352.07,2.562.07,3.843l.037,9.656c0,2.632-.212,5.3-.352,7.93a23.281,23.281,0,0,1,2.381-.212c.417,0,1.544.107,2.558.212a36.872,36.872,0,0,1-.245-4.745V175.233" transform="translate(-847.934 -159.573)" fill="#63003c"/><path d="M11.676,177.192c-1.088.072-2.139.142-3.222.142-1.226,0-2.418-.1-3.646-.142l3.574-8.511,3.294,8.511m3.956,9.66c.627-.037,1.61-.212,2.591-.212s2.2.175,2.729.212c-1.577-3.36-3.882-8.585-5.217-11.6-1.258-2.908-3.36-7.753-5.042-12.5a4.119,4.119,0,0,1-1.123.177,4.146,4.146,0,0,1-1.156-.177c-.839,2.842-2.868,7.34-6.407,15.159l-4.059,8.933a10.082,10.082,0,0,1,1.573-.212,11.429,11.429,0,0,1,1.684.212,76.441,76.441,0,0,1,2.8-7.513c1.4-.068,2.8-.138,4.2-.138,1.507,0,2.975.068,4.485.138l1.47,3.67Z" transform="translate(-1141.788 -153.643)" fill="#63003c" fill-rule="evenodd"/><path d="M485.9,181.014c3.185-.59,6.091-2.563,6.091-6.405a5.355,5.355,0,0,0-1.61-3.875c-1.5-1.418-3.222-1.693-5.5-1.693-.8,0-4.865.17-5.778.17a34.806,34.806,0,0,1-3.5-.17c.247,4.463.247,4.948.247,9.483,0,6.678-.037,7.438-.317,14.259a18.264,18.264,0,0,1,2.414-.212,21.145,21.145,0,0,1,2.348.212c0-.9-.14-5.365-.14-6.37V181.5h.839c1.892,2.628,4.063,5.676,5.85,8.411.522.8,1.3,2.075,1.822,2.873a16.7,16.7,0,0,1,2.836-.212,26.181,26.181,0,0,1,3.115.212c-2.206-2.735-3.15-3.948-5.916-7.788-.524-.727-1.3-1.87-1.822-2.6l-.977-1.385m-5.743-10.108c.524-.033,1.818-.173,2.486-.173a5.371,5.371,0,0,1,3.257.865,3.994,3.994,0,0,1,1.468,3.6,4.5,4.5,0,0,1-4.8,4.78c-.911,0-1.752-.07-2.414-.1v-8.963Z" transform="translate(-1592.626 -159.573)" fill="#63003c" fill-rule="evenodd"/><path d="M1434.8,372.611c0,.221-3.17.43-7.693.607a11.053,11.053,0,0,1-1.847-1.287c5.485.194,9.54.428,9.54.679" transform="translate(-2489.186 -351.105)" fill="#77838f"/><path d="M1428.786,241.781c0,.184-2.661.36-6.456.509.546-.317,1.108-.631,1.691-.95,2.873.135,4.765.284,4.765.441" transform="translate(-2486.42 -227.825)" fill="#77838f"/><path d="M903.271,500.056c-1.759.02-3.3.028-4.507.028-1.73,0-3.135-.526-3.135-1.184s1.4-1.175,3.135-1.175c1.54,0,3.62.015,6,.046-.922,1.317-1.363,2.108-1.4,2.154l-.094.131" transform="translate(-1989.208 -469.855)" fill="#77838f"/><path d="M923.554,566.537a15.788,15.788,0,0,0,1.883,1.909s.28.4,1.131.055a5.289,5.289,0,0,0,2.43-1.92c2.416.039,4.985.094,7.508.151.21.3.629.915,1.152,1.68-7.039.181-14.678.289-18.591.289-1.632,0-2.954-.5-2.954-1.114s1.32-1.112,2.954-1.112c1.191,0,2.724.009,4.485.031a.06.06,0,0,0,0,.033" transform="translate(-2008.546 -534.755)" fill="#77838f"/><path d="M956.265,638.05c-1.446,0-2.617-.441-2.617-.983s1.171-.985,2.617-.985c3.83,0,11.672.116,18.392.3.324.459.647.915.957,1.333-6.921.2-15.338.332-19.349.332" transform="translate(-2043.979 -600.466)" fill="#77838f"/><path d="M1037.621,708.347c-5.643.245-15.342.411-19.375.411-1.136,0-2.056-.349-2.056-.773s.922-.773,2.056-.773c3.858,0,12.908.146,18.624.376.258.273.511.529.751.76" transform="translate(-2103.019 -667.612)" fill="#77838f"/><path d="M1116.234,764.879c3.327,0,13.461.249,13.461.548s-10.134.548-13.461.548c-.651,0-1.174-.24-1.174-.548s.525-.548,1.174-.548" transform="translate(-2196.354 -722.051)" fill="#77838f"/><path d="M909.125,365.212c-4.186.07-7.945.111-10.361.111-1.73,0-3.135-.531-3.135-1.182s1.4-1.184,3.135-1.184c2.809,0,7.421.055,12.421.146-.745.725-1.43,1.431-2.06,2.108" transform="translate(-1989.208 -342.634)" fill="#77838f"/><path d="M1490.825,308.918c2.455.131,4,.273,4,.424,0,.166-1.868.323-4.762.467a2.08,2.08,0,0,0,.765-.891" transform="translate(-2550.358 -291.619)" fill="#77838f"/><path d="M919.067,298.815c-1.632,0-2.954-.5-2.954-1.112s1.32-1.114,2.954-1.114c3.342,0,9.411.081,15.5.216q-1.118.931-2.124,1.842c-5.341.1-10.418.168-13.374.168" transform="translate(-2008.546 -279.981)" fill="#77838f"/><path d="M972.652,233.3c-6.224.155-12.965.251-16.426.251-1.446,0-2.617-.439-2.617-.983s1.171-.987,2.617-.987c3.819,0,11.642.12,18.353.308-.334.238-.675.481-1.013.732-.308.225-.614.454-.913.679" transform="translate(-2043.942 -218.616)" fill="#77838f"/><path d="M1018.246,169.533c-1.136,0-2.056-.345-2.056-.773s.922-.773,2.056-.773c4.277,0,14.955.184,20.373.452-.345.225-.688.457-1.04.688-5.649.242-15.314.406-19.334.406" transform="translate(-2103.019 -158.578)" fill="#77838f"/><path d="M891.995,432.356c-1.763,0-3.194-.535-3.194-1.206s1.431-1.2,3.194-1.2c2.215,0,5.52.033,9.267.087-.706.817-1.315,1.575-1.84,2.254-2.978.039-5.584.063-7.427.063" transform="translate(-1982.763 -405.876)" fill="#77838f"/><path d="M1115.06,118.9c0-.306.522-.548,1.174-.548,3.327,0,13.461.242,13.461.548s-10.134.551-13.461.551c-.649,0-1.174-.249-1.174-.551" transform="translate(-2196.354 -111.727)" fill="#77838f"/><path d="M1061.918,24.388c.023.6.02,1.195-.009,1.776-5.9.229-11.489.583-11.489.977s5.466.736,11.294.966c-.105.664-.236,1.317-.4,1.955-5.744.234-11.074.575-11.074.959s4.974.7,10.49.937a20.33,20.33,0,0,1-.865,2.019c-4.731.223-8.645.524-8.645.852,0,.306,3.419.59,7.725.806-.238.389-.494.773-.756,1.134q-.419.59-.909,1.162c-2.694.205-4.54.43-4.54.679,0,.21,1.324.409,3.362.585a19.484,19.484,0,0,1-3.978,2.993,30.812,30.812,0,0,1-3.332-3.369c-1.346-1.619-4.192-5.883-4.869-6.84s-1.111-1.236-1.894-.957a10.686,10.686,0,0,1-2.657.555c-.376,0-.583-.146.05-.4a8.8,8.8,0,0,0,4.332-3.806c1.376-2.7.166-6.423.166-6.423a4.692,4.692,0,0,1-1.505,2.735,5.846,5.846,0,0,0-.957-4.7l-.515,2.342s-.324-.015-1.121.647a3.3,3.3,0,0,0-1.018,1.632c.629.249,1.383-.371,1.383-.371a29.657,29.657,0,0,1-3.356,8,5.7,5.7,0,0,1-2.846,2.514c-.852.339-1.132-.055-1.132-.055a15.683,15.683,0,0,1-1.883-1.909s-.046-.081.111-.076c.417,0,1.156-.7,1.32-.987.183-.332.164-.588.068-.605s-.247.247-1.046.749-1.165.149-1.429-.127c-.206-.221-.007-.494.126-.666.12-.151,4.328-7.91,15.469-16.061,14.6-10.685,23.919-13.566,24.452-13.776.354-.138.931-.319,1.059-.186a.511.511,0,0,1,.2.443c-.018.173-.114.262-.787.555a127.945,127.945,0,0,0-15.862,8.876,76.95,76.95,0,0,0-9.094,5.418c-.352.216-.092.529.123.4,7.718-5.075,16.773-8.529,26.77-11.362.478-.138.741-.138.819-.028a.728.728,0,0,1,.14.391c.013.181-.138.277-.548.437q-16.113,5.915-23.755,10.993s-.529.315-.533.679c0,.138.284.153.284.153,2.552.046,5.957.2,7.578.288,0,0-.231.813-1.785,1.466a8.346,8.346,0,0,1-3.406.433.3.3,0,0,0-.255.5c.1.129,2.438,3.847,10.93,4.7" transform="translate(-2115.97 0)" fill="#63003c"/><path d="M163.115,670.373h-1.44s-.2-.874.323-1.213a9.153,9.153,0,0,1,1.116-.6v1.811m6.829-3.277a10.481,10.481,0,0,0-1.429.983c-.553.483.114.668.114.668v1.625H164.45V664.68s-1.521,1.385-1.663,1.569.36.373.36.373l-.085.537a15.448,15.448,0,0,0-1.343.806c-.732.485-1.274,1.1-1.274,1.534s-.183,2.121-.183,2.121h9.684V667.1Zm-8.647-2.084c.476,0,.813-.186.813-.559s-.227-.64-.813-.64c-.524,0-.664.227-.664.64S160.812,665.012,161.3,665.012Zm1.78,0c.483,0,.806-.186.806-.559s-.221-.64-.806-.64c-.527,0-.664.227-.664.64S162.6,665.012,163.078,665.012Zm2.7,7.1c-.518,0-.664.223-.664.636s.186.561.664.561.817-.186.817-.561S166.37,672.108,165.774,672.108Zm1.853,0c-.522,0-.664.223-.664.636s.188.561.664.561.815-.186.815-.561S168.22,672.108,167.626,672.108Zm20.863-7.2c.481,0,.815-.184.815-.559s-.221-.638-.815-.638c-.518,0-.66.225-.66.638S188.013,664.9,188.489,664.9Zm1.85,0c.476,0,.81-.184.81-.559s-.225-.638-.81-.638c-.524,0-.666.225-.666.638S189.857,664.9,190.339,664.9Zm5.105.155c-.26.223-.184.492.146.452v6.119h1.372v-7.618S195.7,664.833,195.445,665.058Zm-5.514,3.432h-.885c0-.485.885-.751.885-.751Zm-5.846,1.009c0,.223-.011.583-.02.874h-7.751v-1.348c.2-.516.546-.577,1.075-.577h5.662C184.275,668.449,184.085,669.082,184.085,669.5Zm9.064-3.993v4.869H191.3v-4.422s-.378.142-.894.369-2.368.972-2.368,1.979v1.164h1.887v.909h-4.485c.007-.214.009-.529.009-.987a2.282,2.282,0,0,0-2.366-2.241H177.9a2.123,2.123,0,0,0-1.593.465v-3.749s-.808.561-1.4,1.007,0,.749,0,.749v4.758h-1.7l-.039-4.083s-1.18.854-1.518,1.114-.146.489.223.489c0,0-.068,3.017-.068,3.727s-.594,1.534-1.857,1.162c0,0-.4.074-.068.374a1.8,1.8,0,0,0,1.177.522,2.048,2.048,0,0,0,2.075-2.058h21.376v-7.613s-1.256.821-1.514,1.046S192.812,665.541,193.149,665.506Z" transform="translate(-1295.014 -626.543)" fill="#63003c"/></g></svg>